<?xml version="1.0" encoding="UTF-8" standalone="no"?>
<svg
   width="890.88pt"
   height="1107.12pt"
   viewBox="0 0 890.88 1107.12"
   version="1.1"
   id="svg21"
   xmlns="http://www.w3.org/2000/svg"
   xmlns:svg="http://www.w3.org/2000/svg"
   content="%3Cmxfile%20host%3D%22app.diagrams.net%22%20modified%3D%222023-01-23T21%3A25%3A15.357Z%22%20agent%3D%225.0%20(Windows%20NT%2010.0%3B%20Win64%3B%20x64)%20AppleWebKit%2F537.36%20(KHTML%2C%20like%20Gecko)%20Chrome%2F109.0.0.0%20Safari%2F537.36%22%20etag%3D%22Eqd2xLlt5Wbxr-pFVjB_%22%20version%3D%2220.8.10%22%20type%3D%22device%22%3E%3Cdiagram%20name%3D%22Page-1%22%20id%3D%22Bj-6_f9hRHjHBOPiKsLo%22%3EjVZfd6o4EP80few9EdBbHxFQ4xqshV4rbwg0gEBcRQU%2B%2Fc4kWO29u%2Bdse3KSzP%2F5zeDkSbfKZnYMDykTcVI8aSRunnT7SdN0bfQCG1JaRdF0o6fwYxYr2uBO8LIu6Ymkp56zODl9E6yFKOrs8J0YiapKovobLTwexfW72Kcovns9hLz3SO4ELwqL5A%2BxTRbXqaK%2BaD%2Fv9HmS8fTmeTAaK04Z3oR7w6c0jMX1gaQ7T7p1FKJWp7KxkgLRu%2BGi9Kb%2Fwf0K7JhU9f9RWJPLYnz9fG5W3mY5ij6c0d%2B%2Fnnsrl7A49wn3wdbtDQGI%2B4DHrJRQTS7Jsc4AoGW4S4pXccrqTFTA34m6FiUIFMiYhNGeH8W5ii1RiCPwK1E9qptFxlGtFgeghqeDqt5n1iQQ8ER6M29UcqPAOQ7r8Ek31VWbni78SZs0JaRqvc5dLWgnxm7TnKOOZOH8jUS2uCz1WI%2Fboc7a4SUqowvLzSuzxl1cRhmdT9rgwy2iKijWH%2B412LjkvZyScPMyplXqhpu3wN8UezobFMHHGuSDQ%2FARWzudj2nutK5lDFb2%2B3Xl89bNtxqznYGbmQ3LHe52ztm1HbLyzcbtGPzvDddec9aB31lahJtYxDbJ5H0eH4L5m3j1qM48gzB%2FPQRbOmqBbeJalMflrzbSissuBx3PuNLcKKmepquuqYOPtzSYTcnW72nEbYPNlASbNd9Wex7NxiQqp3ngmc0yd65La6JHZUHi2a8znS2GdDop4NzSqVvsZsU50OBs0yvEUANeDfO2eTJzfr5a4z99dU1F5y7YHx8Dn2S7cnwOPMqDsjjtID%2FaAd42Yg45zBfprnLLnb6oX70FxnSOtCaNZ%2B%2BCWYaSs80TA51lftOD%2BDU33SmZ5iaz9M0z85XMXx6FPlhkrrH1Ty8RRBdakz14cAHJxm2hAlAtOmM1oMmX%2Ft6gFoGqvMPZMZhn1syPGqRBNblrmTUsXe6o66NcxJnPdGqbJe2c66qDynomoOQMcGcWoARrZZlDoA3BVgudQGBHOUQRbFCMpQYZuFPU1ZGPSMPSwF%2B78vec5dyA%2B3AFqEOGP1EXbA9cqbfnrr0FWwxz6PrVoK70iXGofCBelKMatfeY58CVdPBlER3Pbod8p3Nb5QfOhLUow3Rp05d%2B4Q57LrHqwJbEjrWT0wp9WKah1iTH7sa1shksE1Ykdwb4SXxsrrBryVB%2BJTbWwgFb5rXPoWYSa4kL8CM8D1UseF7LGGSMOYUvad3nxzXMHfAk6Af3W06ANdSst2Ov0Y%2BBNUXfO4sMsV6yJlJm3%2FV86BMG93e0ybctaUEOdRHDAe5QU4kz9skiY2Dv1EFOWKOhrIFPOeIjMfJln1wlBjnissZewpjwK1O9CHZV3RzIy%2BRgq1upXHCHePZffafk1jLP%2Foy1H6hayTP2tMJU5iV9EczLVVgPABPE1cAexF5AX4gns%2Fqe8yOQYVztWHesI9aLYo7wa4c9hb9WeJY%2BiLQL%2FcwyiMNTvSprjzlBDOCjVfHCN2a%2F33qhwV7A2KT%2FDr8TBrViGKeGfqEujcxJ5sdVP3TpiGYvD1%2F9UosebzpMg87AKdZPj4k4xsnDLFLEr0l1Z3yKqv5tbqmpJg38xqmEHIVAGMDtKOqwn4jP2ugHkuLsCGNM0U7ijO%2BCyZ%2FT%2BzaKYT4mzQOpn%2BazRJRJfWxB5MYdaT%2BMEbn%2FGcpC%2F9R61rV%2F51%2Fv75jRS%2F84SR%2FfMDoxfoz7h0DYv5%2F4l%2Fv7EwMO%2FSvjdr2%2FZiTv4VGoO%2F8A%3C%2Fdiagram%3E%3C%2Fmxfile%3E">
   <defs
      id="defs11">
      <clipPath
         id="clip-0">
         <path
            clip-rule="nonzero"
            d="M 9 220 L 677 220 L 677 1097 L 9 1097 Z M 9 220 "
            id="path2" />
      </clipPath>
      <clipPath
         id="clip-1">
         <path
            clip-rule="nonzero"
            d="M 458.425781 1.121094 L 888.652344 879.324219 L 431.042969 1103.503906 L 0.816406 225.300781 Z M 458.425781 1.121094 "
            id="path5" />
      </clipPath>
      <clipPath
         id="clip-2">
         <path
            clip-rule="nonzero"
            d="M 458.425781 1.121094 L 888.625 879.269531 L 431.015625 1103.449219 L 0.816406 225.300781 Z M 458.425781 1.121094 "
            id="path8" />
      </clipPath>
      <linearGradient id="grad1" x1="0%" y1="0%" x2="100%" y2="0%">
         <stop offset="0%" style="stop-color:rgb(52,37,175);stop-opacity:1" />
         <stop offset="100%" style="stop-color:rgb(195,107,214);stop-opacity:1" />
      </linearGradient>
   </defs>
   <g
      clip-path="url(#clip-0)"
      id="g19">
      <g
         clip-path="url(#clip-1)"
         id="g17">
         <g
            clip-path="url(#clip-2)"
            id="g15">
            <path
               fill-rule="nonzero"
               fill="url(#grad1)"
               fill-opacity="1"
               d="M 341.375,319.42187 C 161.15234,258.28516 12.125,213.88672 9.589844,221.23047 c -2.539063,7.33984 35.921875,95.23437 84.714844,194.83594 82.527342,168.46093 92.230472,182.0039 120.515622,183.39453 28.28125,1.39453 28.91406,-0.44141 -10.71875,-34.39453 -54.25,-48.13282 -140.613279,-261.98438 -112.707029,-283.27735 22.320309,-17.03515 528.785159,143.48438 543.242189,172.9961 12.04687,24.59375 -3.33203,83.96875 -19.28125,79.58593 C 609.83594,532.5 609.39453,515.94531 614.5,498.19531 624.04687,467.59766 609.96875,460.77344 372.73437,380.29687 233.57031,334.11719 113.36719,298.46875 104.71094,302.71094 c -12.36719,6.05859 -1.01953,38.61718 42.95703,128.3789 l 58.43359,119.27735 147.1211,49.90625 c 80.91796,27.44922 148.92968,53.59375 151.33984,58.51172 9.03516,18.44531 -53.65625,190.96093 -74.67969,201.26171 -17.3125,8.48047 -30.05859,-8.14843 -87.95312,-120.0625 -99.52344,-190.63281 -107.32422,-150.21484 -11.67188,57.5586 49.33203,106.96094 85.57422,171.54687 98.44531,175.91015 12.875,4.36719 38.01954,-47.59375 81.14844,-172.40625 L 570.76953,621.77734 403.35547,571.14062 235.9375,520.5 205.85156,455.95312 c -16.86719,-34.42968 -26.94922,-70.66015 -21.9375,-79.21093 6.2461,-9.16016 88.46485,11.55078 195.125,47.73437 178.38672,60.51172 185.10938,64.83985 176.16797,96.66797 -7.01172,23.25391 -1.68359,43.51563 17.11719,69.375 25.49219,33.25391 24.1289,46.12109 -39.29688,229.66797 -89.42578,258.8008 -90.66015,259.4063 -205.71875,24.54297 -48.79687,-99.60156 -92.26172,-178.9375 -97.21093,-176.51563 -6.1836,3.02735 37.69921,101.98828 95.52734,220.03516 80.72266,164.7734 109.12891,213.3711 121.49609,207.3125 22.25782,-10.9062 179.64453,-475.29688 166.92969,-494.98828 -26.66406,-38.78125 -26.53516,-51.03906 1.08203,-44.7461 22.70313,5.64844 30.78906,-2.88671 46.61328,-45.70703 11.38282,-29.97265 16.61719,-59.98437 13.60547,-66.13281 -3.61719,-7.375 -153.75,-63.42969 -333.97656,-124.56641 z m 0,0"
               id="path13" />
         </g>
      </g>
   </g>
</svg>